<?xml version="1.0" standalone="no"?><!DOCTYPE svg PUBLIC "-//W3C//DTD SVG 1.1//EN" "http://www.w3.org/Graphics/SVG/1.1/DTD/svg11.dtd"><svg t="1744101107468" class="icon" viewBox="0 0 1024 1024" version="1.1" xmlns="http://www.w3.org/2000/svg" p-id="2695" xmlns:xlink="http://www.w3.org/1999/xlink" width="200" height="200"><path d="M153.6 204.8h716.8v512H153.6z" fill="#B4E2B7" p-id="2696"></path><path d="M179.2 716.5952h-51.2v-460.8a76.8 76.8 0 0 1 76.8-76.8h665.6a77.2608 77.2608 0 0 1 25.6 4.4032v70.4a25.9072 25.9072 0 0 0-25.6-23.808H204.8a25.6 25.6 0 0 0-25.6 25.6v460.8z" fill="#005213" opacity=".2" p-id="2697"></path><path d="M773.6832 366.0288l-134.3488 135.1168-135.1168-135.168a25.6 25.6 0 0 0-36.1984 0l-153.6 153.2928a25.6 25.6 0 0 0 18.1248 43.7248 25.6 25.6 0 0 0 18.0736-7.5264l135.2192-135.168 135.168 135.168a25.6 25.6 0 0 0 18.1248 7.5264 25.6 25.6 0 0 0 18.1248-7.5776l152.4736-153.2928a25.6 25.6 0 0 0-36.3008-36.096z" fill="#005213" opacity=".2" p-id="2698"></path><path d="M281.6 870.4a25.6 25.6 0 0 1-25.6-25.6 25.6 25.6 0 0 1 25.6-25.6h460.8a25.6 25.6 0 0 1 25.6 25.6 25.6 25.6 0 0 1-25.6 25.6z m-102.4-102.4A76.8 76.8 0 0 1 102.4 691.2v-460.8A76.8 76.8 0 0 1 179.2 153.6h665.6A76.8 76.8 0 0 1 921.6 230.4v460.8a76.8 76.8 0 0 1-76.8 76.8zM153.6 230.4v460.8a25.6 25.6 0 0 0 25.6 25.6h665.6a25.6 25.6 0 0 0 25.6-25.6v-460.8a25.6 25.6 0 0 0-25.6-25.6h-665.6a25.6 25.6 0 0 0-25.6 25.6z m433.3568 325.1712l-135.168-135.168-135.168 135.168a25.6 25.6 0 0 1-18.1248 7.4752 25.6 25.6 0 0 1-18.1248-7.4752 25.6 25.6 0 0 1 0-36.2496l153.6-153.2928a25.6 25.6 0 0 1 18.0224-7.4752 25.9584 25.9584 0 0 1 18.1248 7.4752l135.0656 135.168 134.4-135.0656a25.6 25.6 0 0 1 36.1472 0 25.6 25.6 0 0 1 0 36.1472l-152.4736 153.2928a25.088 25.088 0 0 1-18.1248 7.5264 25.6 25.6 0 0 1-18.2272-7.5264z" fill="#005213" p-id="2699"></path></svg>